<svg xmlns="http://www.w3.org/2000/svg" width="400" height="400" viewBox="0 0 400 400">
  <rect width="400" height="400" fill="#0D1117"/>
  <circle cx="200" cy="185" r="140" fill="none" stroke="#4A90D9" stroke-width="1.2" stroke-dasharray="10,6"/>
  <circle cx="200" cy="45" r="6" fill="#4A90D9"/>
  <circle cx="340" cy="185" r="6" fill="#4A90D9"/>
  <circle cx="200" cy="325" r="6" fill="#4A90D9"/>
  <circle cx="60" cy="185" r="6" fill="#4A90D9"/>
  <line x1="200" y1="51" x2="200" y2="110" stroke="#4A90D9" stroke-width="0.8" stroke-dasharray="4,4"/>
  <line x1="334" y1="185" x2="275" y2="185" stroke="#4A90D9" stroke-width="0.8" stroke-dasharray="4,4"/>
  <line x1="200" y1="319" x2="200" y2="260" stroke="#4A90D9" stroke-width="0.8" stroke-dasharray="4,4"/>
  <line x1="66" y1="185" x2="125" y2="185" stroke="#4A90D9" stroke-width="0.8" stroke-dasharray="4,4"/>
  <circle cx="200" cy="185" r="96" fill="none" stroke="#00C9B1" stroke-width="1.8"/>
  <polygon points="200,114 247,141 247,196 200,223 153,196 153,141" fill="none" stroke="#00C9B1" stroke-width="1.8"/>
  <rect x="185" y="178" width="30" height="24" rx="4" fill="none" stroke="#E8C84A" stroke-width="2"/>
  <path d="M191,178 L191,169 Q200,161 209,169 L209,178" fill="none" stroke="#E8C84A" stroke-width="2" stroke-linecap="round"/>
  <circle cx="200" cy="188" r="4" fill="#E8C84A"/>
  <line x1="200" y1="192" x2="200" y2="198" stroke="#E8C84A" stroke-width="2" stroke-linecap="round"/>
  <text x="200" y="358" font-family="Arial, sans-serif" font-size="22" font-weight="500" letter-spacing="8" fill="#E8C84A" text-anchor="middle">IDIOS</text>
  <text x="200" y="378" font-family="Arial, sans-serif" font-size="11" letter-spacing="2" fill="#555" text-anchor="middle">PRIVATE SETTLEMENT LAYER</text>
</svg>
